<svg id="eZgfnupeIHb1" xmlns="http://www.w3.org/2000/svg" xmlns:xlink="http://www.w3.org/1999/xlink" viewBox="0 0 300 300" shape-rendering="geometricPrecision" text-rendering="geometricPrecision"><path d="M59.26535,57.342666l47.05685,49.8372l8.695922-5.882316l10.448235-5.97042L141.138707,90h8.861292h7.930512l18.65756,5.32713l8.955629,5.97042l7.51397,5.882316l49.4685-49.937482-14.746415-12.244025-24.835752-13.473894-18.979453-6.64281-10.438699-4.881657h-10.438699l-13.087155-.812179-14.433051-.000001-20.548824,6.642809L83.739197,39.116244L59.26535,57.342666Z" transform="translate(.000003 0.000003)" fill="rgba(255,255,255,0)" stroke="rgba(63,87,135,0)" stroke-width="0.6"/><path d="M59.26535,57.342666l49.332869,50.823906l7.311056-6.055511l9.789938-6.189417l10.712248-4.445566L149.999999,90h7.930512l18.65756,5.32713l8.955629,5.97042l7.51397,5.882316l49.4685-49.937482-14.746415-12.244025-24.835752-13.473894-18.979453-6.64281-8.19667.239257-11.948168-3.969811-14.622051.170824-13.603925.158929-20.575614,4.349773L83.739197,39.116244L59.26535,57.342666Z" transform="matrix(-.011682 0.999932-.999932-.011682 303.063368-.147363)" fill="#f00" stroke="rgba(63,87,135,0)" stroke-width="0.6"/><ellipse rx="135.020466" ry="130" transform="matrix(.962817 0 0 1 150 150)" fill="rgba(255,255,255,0)" stroke="#000" stroke-width="5"/><ellipse rx="68.705148" ry="71.845618" transform="matrix(.873297 0 0 0.835124 150 150)" fill="rgba(255,255,255,0)" stroke="#000" stroke-width="5"/><line x1="-150" y1="-150" x2="150" y2="150" transform="matrix(.162148 0 0 0.166124 82 82.261266)" fill="none" stroke="#000" stroke-width="30"/><line x1="-150" y1="-150" x2="150" y2="150" transform="matrix(-.164895 0 0 0.166124 217.791923 82.261266)" fill="none" stroke="#000" stroke-width="30"/><line x1="-150" y1="-150" x2="150" y2="150" transform="matrix(-.163159 0 0 0.163719 83.7392 216.702955)" fill="none" stroke="#000" stroke-width="30"/><line x1="-150" y1="-150" x2="150" y2="150" transform="matrix(.164895 0 0 0.162652 217.791923 216.863003)" fill="none" stroke="#000" stroke-width="30"/><path d="" fill="none" stroke="#3f5787" stroke-width="0.6"/></svg>
