<svg id="e8dCmxbw7l91" xmlns="http://www.w3.org/2000/svg" xmlns:xlink="http://www.w3.org/1999/xlink" viewBox="0 0 300 300" shape-rendering="geometricPrecision" text-rendering="geometricPrecision"><ellipse rx="59.083506" ry="59.319766" transform="translate(150 149.243836)" fill="#f00" stroke-width="0"/><path d="M20,128.673757v44.317239l6.110525,19.154109l3.328801,10.507496l4.327442,7.347397l10.714576,15.137959l6.129155,11.094642l8.654858,5.028203l47.056842-48.795601-7.089347-7.025549-4.714826-12.44866-4.518023-16.432233.000001-14.938394l4.020078-12.946608q5.212774-12.946607,5.212774-12.448661t7.089349-9.161037l-47.056849-49.8372q0,.963125-8.654859,8.890126L33.766766,89.999997l5.326081-7.738734-9.653523,19.274159-3.328801,9.986403-6.110525,17.151931" transform="translate(.000003 0.000005)" fill="rgba(255,0,0,0)" stroke="rgba(63,87,135,0)" stroke-width="0.6"/><path d="M108.21305,192.465203l-48.9477,48.7956l12.033879,12.711709l27.933622,16.565286l21.437431,5.196953l35.079432,4.265248l33.130575-5.889295l37.02829-17.539717l16.617593-15.310183-49.4685-48.795602L178.161573,202.6526l-23.711098,7.347398h-14.941239L120.670282,202.6526L108.21305,192.465203" transform="translate(.000001 0.000002)" fill="rgba(255,0,0,0)" stroke="rgba(63,87,135,0)" stroke-width="0.6"/><ellipse rx="135.020466" ry="130" transform="matrix(.962817 0 0 1 150 150)" fill="rgba(255,255,255,0)" stroke="#000" stroke-width="5"/><ellipse rx="68.705148" ry="71.845618" transform="matrix(.873297 0 0 0.835124 150 150)" fill="rgba(255,255,255,0)" stroke="#000" stroke-width="5"/><line x1="-150" y1="-150" x2="150" y2="150" transform="matrix(.162148 0 0 0.166124 82 82.261266)" fill="none" stroke="#000" stroke-width="30"/><line x1="-150" y1="-150" x2="150" y2="150" transform="matrix(-.164895 0 0 0.166124 217.791923 82.261266)" fill="none" stroke="#000" stroke-width="30"/><line x1="-150" y1="-150" x2="150" y2="150" transform="matrix(-.163159 0 0 0.163719 83.7392 216.702955)" fill="none" stroke="#000" stroke-width="30"/><line x1="-150" y1="-150" x2="150" y2="150" transform="matrix(.164895 0 0 0.162652 217.791923 216.863003)" fill="none" stroke="#000" stroke-width="30"/></svg>
